<svg xmlns="http://www.w3.org/2000/svg" xmlns:xlink="http://www.w3.org/1999/xlink" width="800" zoomAndPan="magnify" viewBox="0 0 600 299.999988" height="400" preserveAspectRatio="xMidYMid meet" version="1.0"><defs><filter x="0%" y="0%" width="100%" xlink:type="simple" xlink:actuate="onLoad" height="100%" id="id1" xlink:show="other"><feColorMatrix values="0 0 0 0 1 0 0 0 0 1 0 0 0 0 1 0 0 0 1 0" color-interpolation-filters="sRGB"/></filter><mask id="id2"><g filter="url(#id1)"><rect x="-60" width="720" fill="rgb(0%, 0%, 0%)" y="-29.999999" height="359.999986" fill-opacity="0.298"/></g></mask><clipPath id="id3"><path d="M 0 0 L 251 0 L 251 300 L 0 300 Z M 0 0 " clip-rule="nonzero"/></clipPath><clipPath id="id4"><rect x="0" width="252" y="0" height="300"/></clipPath><mask id="id5"><g filter="url(#id1)"><rect x="-60" width="720" fill="rgb(0%, 0%, 0%)" y="-29.999999" height="359.999986" fill-opacity="0.298"/></g></mask><clipPath id="id6"><path d="M 1 0 L 239 0 L 239 287.761719 L 1 287.761719 Z M 1 0 " clip-rule="nonzero"/></clipPath><clipPath id="id7"><rect x="0" width="239" y="0" height="288"/></clipPath></defs><g mask="url(#id2)"><g transform="matrix(1, 0, 0, 1, 0, 0)"><g clip-path="url(#id4)"><g clip-path="url(#id3)"><path fill="rgb(78.819275%, 82.348633%, 83.139038%)" d="M 205.671875 320.914062 C 191.707031 320.523438 177.648438 319.9375 163.683594 319.742188 C 150.308594 319.644531 136.929688 320.132812 123.554688 320.132812 C 114.960938 320.132812 106.367188 319.351562 97.675781 319.9375 C 85.765625 320.621094 73.753906 320.621094 61.839844 319.9375 C 51.785156 319.449219 42.117188 316.417969 33.621094 311.140625 C 20.636719 302.929688 9.015625 292.863281 -0.945312 281.234375 C -5.726562 275.855469 -10.804688 270.675781 -16.175781 265.789062 C -25.355469 257.480469 -33.070312 247.707031 -39.023438 236.957031 C -43.808594 228.355469 -48.691406 219.753906 -53.964844 211.445312 C -57.1875 206.265625 -60.898438 201.378906 -65 196.785156 C -74.859375 185.839844 -83.160156 173.523438 -89.703125 160.328125 C -94.976562 149.480469 -101.808594 139.316406 -109.914062 130.421875 C -119.191406 120.84375 -123.683594 109.113281 -125.929688 96.40625 C -127.785156 86.046875 -129.738281 75.785156 -131.007812 65.226562 C -132.664062 51.738281 -131.980469 38.152344 -128.761719 24.960938 C -126.320312 15.183594 -121.046875 6.484375 -113.429688 -0.160156 C -94.683594 -17.460938 -71.34375 -28.992188 -46.152344 -33.390625 C -32.386719 -35.835938 -18.714844 -38.277344 -4.945312 -39.746094 C 4.621094 -40.527344 14.289062 -40.625 23.859375 -40.039062 C 36.160156 -39.648438 48.660156 -38.765625 60.28125 -34.269531 C 73.363281 -29.285156 86.15625 -23.714844 98.945312 -17.949219 C 102.460938 -16.1875 105.78125 -13.84375 108.613281 -11.105469 C 114.277344 -6.121094 119.84375 -0.941406 125.210938 4.433594 C 134.878906 14.109375 144.15625 24.371094 150.503906 36.589844 C 156.558594 47.535156 157.824219 60.535156 154.117188 72.460938 C 153.042969 75.980469 153.042969 79.695312 154.117188 83.210938 C 155.679688 89.273438 156.363281 95.527344 156.070312 101.878906 C 156.167969 107.648438 157.144531 113.316406 158.800781 118.789062 C 164.269531 137.945312 170.617188 156.808594 180.578125 174.402344 C 191.21875 193.265625 202.839844 211.542969 214.753906 229.625 C 221.488281 239.890625 227.835938 250.347656 234.671875 260.609375 C 237.308594 264.617188 240.433594 268.234375 243.363281 272.046875 C 247.171875 276.933594 249.613281 282.699219 250.589844 288.757812 C 252.835938 301.660156 245.121094 314.171875 232.71875 318.082031 C 223.832031 320.425781 214.753906 321.5 205.671875 320.914062 Z M 151.675781 85.167969 C 149.917969 81.160156 149.722656 76.664062 150.992188 72.558594 C 155.09375 60.535156 153.628906 47.339844 146.988281 36.394531 C 142.496094 28.769531 137.222656 21.636719 131.167969 15.183594 C 122.382812 5.800781 112.8125 -2.898438 103.4375 -11.792969 C 101.972656 -13.0625 100.3125 -14.234375 98.457031 -15.015625 C 84.886719 -21.859375 70.824219 -27.625 56.375 -32.316406 C 45.730469 -35.738281 34.695312 -36.617188 23.664062 -36.910156 C 14.289062 -37.496094 4.816406 -37.398438 -4.652344 -36.714844 C -17.542969 -35.445312 -30.238281 -32.902344 -43.125 -30.949219 C -65.683594 -27.332031 -87.164062 -17.949219 -105.226562 -3.582031 C -115.578125 4.335938 -123.585938 14.207031 -126.417969 27.5 C -128.566406 37.761719 -129.347656 48.320312 -128.664062 58.875 C -127.882812 72.949219 -124.855469 86.730469 -122.023438 100.609375 C -120.167969 110.578125 -115.578125 119.960938 -108.742188 127.390625 C -99.953125 137.164062 -92.535156 148.109375 -86.773438 159.9375 C -80.425781 173.035156 -72.125 185.058594 -62.265625 195.613281 C -60.898438 197.175781 -59.53125 198.742188 -58.261719 200.402344 C -50.644531 210.566406 -44.003906 221.320312 -38.242188 232.65625 C -32.777344 243.113281 -25.746094 252.691406 -17.347656 260.902344 C -9.242188 268.917969 -1.433594 277.128906 6.574219 285.339844 C 15.363281 294.527344 25.324219 302.636719 36.160156 309.382812 C 46.707031 315.929688 58.328125 317.496094 70.238281 317.496094 C 81.371094 317.496094 92.503906 317.003906 103.632812 316.90625 C 118.867188 316.90625 134 317.203125 149.234375 317.003906 C 166.710938 316.808594 184.191406 317.003906 201.765625 318.179688 C 211.335938 318.863281 221.003906 317.984375 230.375 315.636719 C 244.828125 312.019531 249.027344 298.628906 247.464844 288.367188 C 246.488281 281.722656 242.875 276.347656 238.96875 270.96875 C 233.109375 262.957031 227.445312 254.941406 221.976562 246.730469 C 214.460938 235.296875 207.039062 223.859375 199.8125 212.230469 C 185.070312 188.574219 169.738281 165.117188 161.730469 137.945312 C 158.605469 127.292969 155.679688 116.738281 152.945312 106.082031 C 151.480469 100.121094 150.699219 94.160156 149.429688 88.195312 C 149.039062 86.144531 149.722656 85.460938 151.675781 85.167969 Z M 128.628906 60.046875 C 128.628906 68.550781 126.285156 76.566406 124.53125 84.679688 C 117.988281 115.074219 116.328125 145.765625 122.871094 176.261719 C 125.113281 186.71875 128.824219 196.785156 136.539062 204.800781 C 138.492188 206.851562 140.738281 208.710938 142.984375 210.371094 C 149.429688 215.160156 155.289062 220.828125 160.265625 227.085938 C 164.464844 232.460938 167.199219 238.910156 168.273438 245.753906 C 168.957031 248.785156 168.46875 252.007812 166.90625 254.746094 C 165.441406 257.679688 163.585938 260.316406 161.4375 262.859375 C 145.523438 280.648438 125.019531 293.546875 102.070312 300.195312 C 93.867188 302.441406 85.179688 302.832031 76.78125 301.171875 C 66.917969 299.414062 56.863281 298.335938 47.78125 293.9375 C 35.671875 288.171875 23.859375 281.820312 14.386719 272.046875 C 2.863281 259.925781 -5.824219 245.265625 -11 229.332031 C -18.226562 208.222656 -25.84375 187.207031 -33.363281 166.191406 C -37.558594 155.441406 -44.296875 145.765625 -52.988281 138.140625 C -61.484375 130.128906 -69.390625 121.722656 -77.496094 113.414062 C -83.0625 107.746094 -88.824219 102.171875 -94.097656 96.210938 C -97.222656 92.496094 -99.855469 88.488281 -102.199219 84.289062 C -105.03125 79.695312 -105.421875 74.023438 -103.273438 69.136719 C -102.003906 66.011719 -100.929688 62.882812 -99.273438 59.949219 C -94.585938 50.761719 -89.898438 41.671875 -84.820312 32.679688 C -75.835938 16.75 -62.753906 5.898438 -44.882812 0.816406 C -28.089844 -3.777344 -11.292969 -7.6875 6.183594 -8.371094 C 24.933594 -8.957031 43.582031 -4.851562 60.378906 3.554688 C 74.046875 10.199219 87.621094 17.238281 101.191406 24.175781 C 107.441406 27.304688 113.203125 31.3125 118.28125 36.101562 C 119.648438 37.371094 121.503906 38.054688 122.773438 39.523438 C 124.335938 40.890625 125.601562 42.648438 126.285156 44.605469 C 127.554688 49.589844 128.238281 54.671875 129.3125 59.753906 Z M 8.527344 -5.535156 C -9.730469 -5.144531 -28.382812 -1.136719 -46.933594 4.53125 C -60.117188 8.441406 -71.441406 16.945312 -78.863281 28.574219 C -86.871094 41.085938 -93.902344 54.28125 -99.855469 67.867188 C -102.6875 73.730469 -102.003906 80.574219 -98.199219 85.753906 C -94 92.203125 -89.117188 98.265625 -83.550781 103.640625 C -77.007812 110.089844 -70.464844 116.640625 -63.925781 123.1875 C -59.921875 127.195312 -56.210938 131.496094 -52.011719 135.113281 C -42.050781 143.617188 -34.4375 154.660156 -29.945312 166.976562 C -22.328125 188.476562 -14.808594 210.078125 -7.09375 231.484375 C -1.140625 248 7.453125 262.859375 21.125 274.195312 C 35.378906 286.414062 52.761719 294.429688 71.3125 297.457031 C 82.738281 299.21875 93.867188 300.195312 105 296.382812 C 121.601562 290.910156 136.929688 282.015625 149.917969 270.1875 C 154.507812 265.886719 158.703125 261.292969 162.707031 256.40625 C 164.953125 253.867188 166.027344 250.445312 165.636719 247.121094 C 164.953125 241.550781 163 236.273438 159.972656 231.582031 C 154.996094 224.347656 148.746094 218.09375 141.617188 213.011719 C 134.683594 208.027344 129.214844 201.28125 125.699219 193.460938 C 120.039062 181.539062 117.890625 168.539062 116.816406 155.636719 C 114.667969 130.910156 116.523438 106.082031 122.285156 81.941406 C 124.433594 73.339844 126.578125 64.738281 125.699219 55.84375 C 125.019531 49.492188 124.628906 42.746094 117.5 39.621094 C 117.109375 39.425781 116.71875 39.035156 116.425781 38.742188 C 111.445312 33.953125 105.878906 30.042969 99.726562 26.914062 C 86.449219 20.070312 73.167969 13.230469 59.695312 6.683594 C 43.777344 -1.332031 26.300781 -5.535156 8.527344 -5.535156 Z M 146.695312 97.089844 C 147.183594 97.089844 147.671875 96.40625 148.160156 95.917969 C 147.671875 95.429688 147.28125 94.648438 146.792969 94.453125 C 146.207031 94.257812 145.816406 95.136719 144.9375 95.722656 C 145.621094 96.308594 146.207031 97.089844 146.695312 97.089844 Z M 73.949219 272.046875 C 59.890625 271.164062 47 268.039062 36.550781 258.65625 C 32.742188 255.039062 29.519531 250.933594 26.886719 246.4375 C 20.929688 236.371094 16.4375 225.617188 13.410156 214.28125 C 8.234375 196.199219 1.105469 178.605469 -7.777344 161.992188 C -9.730469 158.375 -11.78125 154.660156 -13.34375 150.847656 C -18.421875 138.335938 -26.625 127.976562 -35.605469 118.007812 C -41.757812 111.164062 -47.519531 103.933594 -53.085938 96.601562 C -57.871094 90.542969 -60.019531 82.917969 -59.238281 75.296875 C -58.261719 66.011719 -55.234375 57.605469 -48.007812 51.25 C -39.023438 43.238281 -29.652344 36.101562 -17.738281 32.777344 C -9.242188 30.628906 -0.457031 30.335938 8.136719 31.800781 C 22.589844 33.949219 36.648438 38.25 49.929688 44.507812 C 54.8125 46.753906 59.890625 48.515625 64.769531 50.957031 C 70.824219 53.988281 76.683594 57.507812 82.640625 60.925781 C 84.105469 61.808594 85.570312 62.882812 87.035156 63.761719 C 88.597656 64.542969 90.746094 64.542969 89.378906 67.28125 C 89.378906 67.476562 89.867188 68.0625 90.160156 68.355469 C 94.550781 72.753906 97.089844 78.617188 97.285156 84.777344 C 97.578125 90.445312 99.042969 96.113281 99.726562 101.78125 C 100.703125 112.046875 100.410156 122.308594 98.945312 132.472656 C 98.066406 140.097656 96.601562 147.523438 95.820312 155.148438 C 95.429688 159.058594 95.332031 162.96875 95.625 166.78125 C 95.625 168.539062 96.113281 170.296875 96.992188 171.765625 C 105 182.320312 108.222656 194.929688 113.007812 206.753906 C 115.449219 212.71875 117.597656 218.777344 119.257812 225.03125 C 121.992188 234.804688 119.648438 245.265625 112.910156 252.886719 C 102.65625 265.398438 88.890625 270.773438 73.65625 271.949219 Z M 97.578125 112.242188 C 97.480469 109.894531 97.578125 106.960938 97.089844 104.03125 C 96.210938 97.382812 94.453125 90.835938 94.355469 84.089844 C 94.355469 75.6875 88.890625 70.40625 83.910156 65.714844 C 78.441406 60.730469 71.3125 57.605469 64.574219 54.085938 C 59.5 51.445312 53.933594 49.492188 48.660156 47.144531 C 35.671875 40.988281 21.808594 36.785156 7.550781 34.636719 C -0.261719 33.363281 -8.167969 33.558594 -15.882812 35.320312 C -27.894531 38.445312 -37.167969 45.484375 -46.054688 53.5 C -52.597656 59.363281 -55.332031 66.988281 -56.308594 75.394531 C -57.285156 83.796875 -54.355469 90.640625 -49.375 96.894531 C -43.710938 104.128906 -37.851562 111.066406 -31.800781 117.910156 C -23.5 127.195312 -16.078125 136.871094 -11.195312 148.40625 C -9.632812 152.019531 -7.777344 155.636719 -5.921875 159.058594 C 3.449219 176.457031 10.96875 194.929688 16.4375 213.890625 C 19.367188 223.957031 23.273438 233.730469 28.253906 243.015625 C 33.914062 254.257812 44.070312 262.566406 56.277344 265.886719 C 75.023438 271.558594 91.917969 268.625 106.757812 255.429688 C 117.5 245.851562 120.429688 234.21875 115.449219 220.632812 C 113.105469 214.476562 110.859375 208.222656 108.417969 202.0625 C 104.511719 191.996094 101.09375 181.734375 94.648438 172.839844 C 93.476562 171.082031 92.894531 169.027344 92.894531 166.976562 C 92.699219 161.695312 92.894531 156.515625 93.574219 151.238281 C 95.820312 138.238281 97.1875 125.140625 97.675781 111.949219 Z M 80.785156 138.433594 C 79.90625 146.449219 79.027344 154.5625 78.148438 162.871094 C 78.050781 164.238281 77.953125 165.605469 77.953125 166.878906 C 77.953125 167.269531 77.953125 167.953125 78.050781 168.050781 C 80.6875 169.222656 79.222656 171.472656 79.417969 173.230469 C 79.710938 176.75 80.003906 180.367188 80.589844 183.882812 C 81.761719 189.652344 81.859375 195.613281 80.882812 201.476562 C 78.636719 211.542969 70.238281 218.972656 59.988281 220.046875 C 47.097656 221.222656 35.183594 212.71875 32.15625 200.109375 C 29.324219 188.476562 24.835938 177.433594 20.539062 166.289062 C 17.707031 158.960938 14.582031 151.726562 11.847656 144.398438 C 7.0625 130.910156 -1.433594 118.984375 -12.660156 110.089844 C -17.835938 106.082031 -21.9375 101 -24.867188 95.234375 C -28.578125 87.511719 -27.503906 80.964844 -21.351562 75 C -19.398438 73.144531 -17.152344 71.582031 -14.710938 70.507812 C -6.996094 66.695312 1.300781 66.109375 9.699219 65.8125 C 23.078125 65.617188 36.355469 68.355469 48.5625 73.925781 C 53.835938 76.273438 58.328125 80.085938 61.546875 84.875 C 65.160156 90.054688 68.773438 95.136719 72.09375 100.511719 C 76.488281 107.453125 78.148438 115.367188 79.417969 123.285156 C 80.199219 128.171875 80.394531 133.15625 80.882812 138.53125 Z M 77.855469 138.433594 C 77.367188 133.15625 77.074219 128.367188 76.390625 123.675781 C 75.21875 116.347656 73.65625 109.015625 69.75 102.664062 C 66.234375 96.992188 62.328125 91.519531 58.523438 86.046875 C 55.398438 81.550781 51.003906 78.128906 46.023438 76.078125 C 31.179688 69.429688 14.777344 67.183594 -1.335938 69.429688 C -6.800781 69.917969 -12.074219 71.679688 -16.761719 74.707031 C -24.378906 80.183594 -26.136719 86.632812 -21.9375 94.648438 C -21.15625 96.308594 -20.179688 97.871094 -19.007812 99.242188 C -16.078125 102.664062 -12.855469 105.886719 -9.535156 108.917969 C -0.0664062 116.542969 7.257812 126.414062 11.945312 137.652344 C 14.09375 143.027344 15.949219 148.503906 18.292969 153.878906 C 24.933594 169.613281 31.667969 185.351562 35.671875 202.0625 C 36.746094 206.65625 39.773438 210.566406 43.972656 212.71875 C 46.609375 214.183594 49.34375 215.355469 52.175781 216.429688 C 61.546875 219.753906 76.683594 212.425781 78.050781 200.890625 C 78.636719 195.320312 78.539062 189.75 77.660156 184.273438 C 77.074219 180.464844 76.878906 176.554688 76.585938 172.644531 C 76.488281 171.082031 77.367188 169.320312 75.414062 168.34375 C 75.121094 168.246094 75.121094 167.367188 75.121094 166.78125 C 75.121094 165.3125 75.121094 163.75 75.414062 162.285156 C 76.292969 154.074219 77.269531 145.960938 78.050781 138.335938 Z M 77.855469 138.433594 " fill-opacity="1" fill-rule="nonzero"/></g></g></g></g><g mask="url(#id5)"><g transform="matrix(1, 0, 0, 1, 361, 0)"><g clip-path="url(#id7)"><g clip-path="url(#id6)"><path fill="rgb(78.819275%, 82.348633%, 83.139038%)" d="M 46.753906 -74.449219 C 60.773438 -74.058594 74.886719 -73.472656 88.90625 -73.273438 C 102.335938 -73.175781 115.765625 -73.667969 129.195312 -73.667969 C 137.820312 -73.667969 146.445312 -72.882812 155.171875 -73.472656 C 167.128906 -74.15625 179.1875 -74.15625 191.144531 -73.472656 C 201.242188 -72.980469 210.945312 -69.945312 219.472656 -64.65625 C 232.511719 -56.429688 244.175781 -46.339844 254.175781 -34.683594 C 258.976562 -29.296875 264.074219 -24.105469 269.464844 -19.210938 C 278.679688 -10.882812 286.425781 -1.089844 292.402344 9.683594 C 297.207031 18.304688 302.109375 26.921875 307.402344 35.246094 C 310.636719 40.4375 314.363281 45.335938 318.480469 49.9375 C 328.378906 60.910156 336.710938 73.25 343.277344 86.472656 C 348.570312 97.34375 355.433594 107.53125 363.570312 116.441406 C 372.882812 126.042969 377.390625 137.796875 379.644531 150.527344 C 381.507812 160.910156 383.46875 171.195312 384.742188 181.773438 C 386.410156 195.289062 385.722656 208.902344 382.488281 222.125 C 380.039062 231.917969 374.746094 240.636719 367.097656 247.296875 C 348.277344 264.632812 324.851562 276.191406 299.558594 280.597656 C 285.738281 283.046875 272.015625 285.496094 258.195312 286.964844 C 248.585938 287.746094 238.882812 287.847656 229.277344 287.257812 C 216.925781 286.867188 204.378906 285.984375 192.714844 281.480469 C 179.578125 276.484375 166.738281 270.902344 153.894531 265.121094 C 150.367188 263.359375 147.035156 261.007812 144.191406 258.265625 C 138.507812 253.269531 132.917969 248.082031 127.527344 242.695312 C 117.824219 232.996094 108.511719 222.710938 102.140625 210.46875 C 96.0625 199.5 94.789062 186.472656 98.511719 174.523438 C 99.589844 171 99.589844 167.277344 98.511719 163.75 C 96.945312 157.675781 96.257812 151.410156 96.550781 145.042969 C 96.453125 139.265625 95.472656 133.582031 93.808594 128.097656 C 88.316406 108.902344 81.945312 90 71.949219 72.367188 C 61.261719 53.464844 49.597656 35.148438 37.640625 17.03125 C 30.875 6.746094 24.503906 -3.734375 17.640625 -14.019531 C 14.996094 -18.035156 11.859375 -21.660156 8.917969 -25.476562 C 5.09375 -30.375 2.644531 -36.152344 1.664062 -42.226562 C -0.589844 -55.15625 7.152344 -67.691406 19.601562 -71.609375 C 28.523438 -73.960938 37.640625 -75.039062 46.753906 -74.449219 Z M 100.960938 161.792969 C 102.726562 165.808594 102.921875 170.3125 101.648438 174.425781 C 97.53125 186.472656 99.003906 199.695312 105.667969 210.664062 C 110.175781 218.304688 115.46875 225.457031 121.546875 231.917969 C 130.371094 241.320312 139.976562 250.039062 149.386719 258.953125 C 150.855469 260.226562 152.523438 261.402344 154.386719 262.183594 C 168.011719 269.039062 182.125 274.820312 196.632812 279.519531 C 207.320312 282.949219 218.394531 283.828125 229.472656 284.125 C 238.882812 284.710938 248.390625 284.613281 257.898438 283.929688 C 270.839844 282.65625 283.582031 280.109375 296.519531 278.148438 C 319.164062 274.523438 340.730469 265.121094 358.863281 250.726562 C 369.253906 242.792969 377.292969 232.898438 380.136719 219.578125 C 382.292969 209.292969 383.078125 198.714844 382.390625 188.136719 C 381.605469 174.035156 378.566406 160.222656 375.726562 146.316406 C 373.863281 136.324219 369.253906 126.921875 362.394531 119.480469 C 353.570312 109.683594 346.121094 98.714844 340.339844 86.863281 C 333.964844 73.738281 325.632812 61.691406 315.734375 51.113281 C 314.363281 49.546875 312.988281 47.980469 311.714844 46.316406 C 304.070312 36.128906 297.402344 25.355469 291.621094 13.992188 C 286.128906 3.511719 279.074219 -6.085938 270.644531 -14.3125 C 262.507812 -22.34375 254.664062 -30.570312 246.625 -38.796875 C 237.804688 -48.003906 227.804688 -56.136719 216.925781 -62.894531 C 206.339844 -69.457031 194.675781 -71.023438 182.714844 -71.023438 C 171.539062 -71.023438 160.367188 -70.53125 149.191406 -70.433594 C 133.898438 -70.433594 118.707031 -70.730469 103.414062 -70.53125 C 85.867188 -70.335938 68.320312 -70.53125 50.675781 -71.707031 C 41.070312 -72.394531 31.367188 -71.511719 21.957031 -69.160156 C 7.449219 -65.539062 3.234375 -52.117188 4.800781 -41.835938 C 5.78125 -35.175781 9.40625 -29.789062 13.328125 -24.402344 C 19.210938 -16.371094 24.894531 -8.339844 30.386719 -0.109375 C 37.933594 11.347656 45.382812 22.808594 52.636719 34.464844 C 67.4375 58.167969 82.828125 81.671875 90.867188 108.902344 C 94.003906 119.578125 96.945312 130.15625 99.6875 140.832031 C 101.160156 146.804688 101.941406 152.78125 103.21875 158.753906 C 103.609375 160.8125 102.921875 161.496094 100.960938 161.792969 Z M 124.097656 186.964844 C 124.097656 178.441406 126.449219 170.410156 128.214844 162.28125 C 134.78125 131.820312 136.449219 101.066406 129.878906 70.507812 C 127.625 60.027344 123.902344 49.9375 116.15625 41.90625 C 114.195312 39.851562 111.941406 37.988281 109.6875 36.324219 C 103.21875 31.523438 97.335938 25.84375 92.335938 19.574219 C 88.121094 14.1875 85.375 7.726562 84.296875 0.867188 C 83.613281 -2.167969 84.101562 -5.398438 85.671875 -8.140625 C 87.140625 -11.082031 89.003906 -13.726562 91.160156 -16.273438 C 107.136719 -34.097656 127.722656 -47.027344 150.757812 -53.6875 C 158.992188 -55.9375 167.71875 -56.332031 176.148438 -54.664062 C 186.046875 -52.902344 196.144531 -51.824219 205.261719 -47.417969 C 217.414062 -41.640625 229.277344 -35.273438 238.785156 -25.476562 C 250.351562 -13.332031 259.074219 1.359375 264.269531 17.324219 C 271.523438 38.480469 279.171875 59.539062 286.71875 80.59375 C 290.933594 91.371094 297.699219 101.066406 306.421875 108.707031 C 314.949219 116.738281 322.890625 125.160156 331.027344 133.484375 C 336.613281 139.167969 342.398438 144.75 347.691406 150.722656 C 350.828125 154.445312 353.472656 158.460938 355.824219 162.671875 C 358.667969 167.277344 359.0625 172.957031 356.902344 177.855469 C 355.628906 180.988281 354.550781 184.121094 352.886719 187.0625 C 348.179688 196.269531 343.476562 205.375 338.378906 214.386719 C 329.359375 230.351562 316.222656 241.222656 298.285156 246.316406 C 281.425781 250.921875 264.566406 254.839844 247.019531 255.523438 C 228.199219 256.113281 209.476562 252 192.617188 243.574219 C 178.890625 236.914062 165.265625 229.863281 151.640625 222.910156 C 145.367188 219.773438 139.585938 215.757812 134.488281 210.960938 C 133.113281 209.6875 131.253906 209 129.976562 207.53125 C 128.410156 206.160156 127.136719 204.398438 126.449219 202.4375 C 125.175781 197.441406 124.488281 192.351562 123.410156 187.257812 Z M 244.667969 252.683594 C 262.996094 252.292969 281.71875 248.277344 300.34375 242.59375 C 313.578125 238.675781 324.949219 230.15625 332.398438 218.5 C 340.4375 205.964844 347.492188 192.742188 353.472656 179.128906 C 356.316406 173.25 355.628906 166.394531 351.808594 161.203125 C 347.59375 154.738281 342.691406 148.667969 337.101562 143.28125 C 330.535156 136.816406 323.96875 130.253906 317.402344 123.691406 C 313.382812 119.675781 309.65625 115.367188 305.441406 111.742188 C 295.441406 103.21875 287.796875 92.152344 283.289062 79.8125 C 275.640625 58.265625 268.09375 36.617188 260.351562 15.167969 C 254.371094 -1.382812 245.746094 -16.273438 232.019531 -27.632812 C 217.710938 -39.875 200.261719 -47.90625 181.636719 -50.945312 C 170.167969 -52.707031 158.992188 -53.6875 147.820312 -49.867188 C 131.152344 -44.382812 115.765625 -35.46875 102.726562 -23.617188 C 98.121094 -19.308594 93.90625 -14.703125 89.886719 -9.808594 C 87.632812 -7.261719 86.554688 -3.832031 86.945312 -0.503906 C 87.632812 5.082031 89.59375 10.371094 92.628906 15.070312 C 97.628906 22.320312 103.902344 28.585938 111.058594 33.679688 C 118.019531 38.675781 123.507812 45.433594 127.039062 53.269531 C 132.722656 65.21875 134.878906 78.246094 135.957031 91.171875 C 138.113281 115.953125 136.25 140.832031 130.46875 165.023438 C 128.3125 173.644531 126.15625 182.261719 127.039062 191.175781 C 127.722656 197.542969 128.117188 204.300781 135.269531 207.433594 C 135.664062 207.628906 136.054688 208.019531 136.347656 208.316406 C 141.347656 213.113281 146.9375 217.03125 153.113281 220.167969 C 166.441406 227.023438 179.773438 233.878906 193.300781 240.441406 C 209.28125 248.472656 226.824219 252.683594 244.667969 252.683594 Z M 105.960938 149.84375 C 105.472656 149.84375 104.980469 150.527344 104.492188 151.015625 C 104.980469 151.507812 105.375 152.289062 105.863281 152.488281 C 106.453125 152.683594 106.84375 151.800781 107.726562 151.214844 C 107.039062 150.625 106.453125 149.84375 105.960938 149.84375 Z M 178.988281 -25.476562 C 193.105469 -24.597656 206.042969 -21.460938 216.535156 -12.058594 C 220.355469 -8.4375 223.589844 -4.324219 226.238281 0.183594 C 232.21875 10.269531 236.726562 21.046875 239.765625 32.40625 C 244.960938 50.527344 252.117188 68.15625 261.035156 84.808594 C 262.996094 88.429688 265.054688 92.152344 266.625 95.972656 C 271.722656 108.507812 279.957031 118.890625 288.972656 128.882812 C 295.148438 135.738281 300.933594 142.984375 306.519531 150.332031 C 311.324219 156.40625 313.480469 164.042969 312.695312 171.683594 C 311.714844 180.988281 308.675781 189.410156 301.421875 195.777344 C 292.402344 203.808594 282.992188 210.960938 271.035156 214.289062 C 262.507812 216.445312 253.683594 216.738281 245.058594 215.269531 C 230.550781 213.113281 216.433594 208.804688 203.105469 202.535156 C 198.203125 200.285156 193.105469 198.519531 188.203125 196.070312 C 182.125 193.035156 176.246094 189.507812 170.265625 186.082031 C 168.796875 185.199219 167.324219 184.121094 165.855469 183.242188 C 164.285156 182.457031 162.128906 182.457031 163.503906 179.714844 C 163.503906 179.519531 163.011719 178.929688 162.71875 178.636719 C 158.308594 174.230469 155.757812 168.355469 155.5625 162.183594 C 155.269531 156.503906 153.796875 150.820312 153.113281 145.140625 C 152.132812 134.855469 152.425781 124.574219 153.894531 114.386719 C 154.777344 106.746094 156.25 99.304688 157.03125 91.664062 C 157.425781 87.746094 157.523438 83.828125 157.230469 80.007812 C 157.230469 78.246094 156.738281 76.480469 155.855469 75.011719 C 147.820312 64.433594 144.582031 51.800781 139.78125 39.949219 C 137.328125 33.972656 135.171875 27.902344 133.507812 21.632812 C 130.761719 11.839844 133.113281 1.359375 139.878906 -6.28125 C 150.171875 -18.816406 163.992188 -24.203125 179.285156 -25.378906 Z M 155.269531 134.660156 C 155.367188 137.011719 155.269531 139.949219 155.757812 142.886719 C 156.640625 149.546875 158.40625 156.109375 158.503906 162.867188 C 158.503906 171.292969 163.992188 176.582031 168.992188 181.28125 C 174.480469 186.277344 181.636719 189.410156 188.402344 192.9375 C 193.496094 195.582031 199.085938 197.542969 204.378906 199.890625 C 217.414062 206.0625 231.335938 210.273438 245.648438 212.429688 C 253.488281 213.703125 261.429688 213.507812 269.171875 211.742188 C 281.230469 208.609375 290.542969 201.558594 299.460938 193.523438 C 306.03125 187.648438 308.773438 180.007812 309.753906 171.585938 C 310.734375 163.164062 307.792969 156.304688 302.792969 150.039062 C 297.109375 142.789062 291.226562 135.835938 285.152344 128.980469 C 276.820312 119.675781 269.367188 109.980469 264.46875 98.421875 C 262.898438 94.796875 261.035156 91.171875 259.175781 87.746094 C 249.761719 70.3125 242.214844 51.800781 236.726562 32.796875 C 233.785156 22.710938 229.863281 12.914062 224.867188 3.609375 C 219.179688 -7.652344 208.984375 -15.976562 196.734375 -19.308594 C 177.910156 -24.988281 160.953125 -22.050781 146.054688 -8.828125 C 135.269531 0.769531 132.332031 12.425781 137.328125 26.039062 C 139.683594 32.210938 141.9375 38.480469 144.386719 44.648438 C 148.308594 54.738281 151.738281 65.023438 158.210938 73.933594 C 159.386719 75.699219 159.972656 77.753906 159.972656 79.8125 C 160.167969 85.101562 159.972656 90.292969 159.289062 95.582031 C 157.03125 108.609375 155.660156 121.730469 155.171875 134.953125 Z M 172.128906 108.410156 C 173.011719 100.378906 173.894531 92.25 174.773438 83.925781 C 174.875 82.554688 174.972656 81.183594 174.972656 79.910156 C 174.972656 79.519531 174.972656 78.832031 174.875 78.734375 C 172.226562 77.558594 173.695312 75.304688 173.5 73.542969 C 173.207031 70.015625 172.914062 66.394531 172.324219 62.867188 C 171.148438 57.089844 171.050781 51.113281 172.03125 45.238281 C 174.285156 35.148438 182.714844 27.707031 193.007812 26.628906 C 205.945312 25.453125 217.90625 33.972656 220.945312 46.609375 C 223.789062 58.265625 228.296875 69.332031 232.609375 80.496094 C 235.453125 87.84375 238.589844 95.089844 241.332031 102.4375 C 246.136719 115.953125 254.664062 127.902344 265.9375 136.816406 C 271.132812 140.832031 275.25 145.925781 278.191406 151.703125 C 281.914062 159.441406 280.835938 166.003906 274.660156 171.976562 C 272.703125 173.839844 270.445312 175.40625 267.996094 176.484375 C 260.253906 180.304688 251.921875 180.890625 243.488281 181.183594 C 230.0625 181.378906 216.730469 178.636719 204.476562 173.054688 C 199.183594 170.703125 194.675781 166.882812 191.4375 162.085938 C 187.8125 156.894531 184.183594 151.800781 180.851562 146.414062 C 176.441406 139.460938 174.773438 131.527344 173.5 123.59375 C 172.714844 118.695312 172.519531 113.699219 172.03125 108.3125 Z M 175.070312 108.410156 C 175.558594 113.699219 175.851562 118.5 176.539062 123.203125 C 177.714844 130.546875 179.285156 137.894531 183.207031 144.257812 C 186.734375 149.941406 190.65625 155.425781 194.476562 160.910156 C 197.613281 165.414062 202.027344 168.84375 207.023438 170.898438 C 221.925781 177.558594 238.394531 179.8125 254.566406 177.558594 C 260.054688 177.070312 265.347656 175.308594 270.054688 172.269531 C 277.699219 166.785156 279.464844 160.320312 275.25 152.289062 C 274.464844 150.625 273.484375 149.058594 272.308594 147.6875 C 269.367188 144.257812 266.132812 141.027344 262.800781 137.992188 C 253.292969 130.351562 245.941406 120.457031 241.234375 109.195312 C 239.078125 103.808594 237.214844 98.324219 234.863281 92.9375 C 228.199219 77.167969 221.433594 61.398438 217.414062 44.648438 C 216.335938 40.046875 213.296875 36.128906 209.082031 33.972656 C 206.4375 32.503906 203.691406 31.328125 200.847656 30.253906 C 191.4375 26.921875 176.246094 34.269531 174.875 45.824219 C 174.285156 51.40625 174.382812 56.992188 175.265625 62.476562 C 175.851562 66.296875 176.050781 70.214844 176.34375 74.132812 C 176.441406 75.699219 175.558594 77.460938 177.519531 78.441406 C 177.8125 78.539062 177.8125 79.421875 177.8125 80.007812 C 177.8125 81.476562 177.8125 83.042969 177.519531 84.511719 C 176.636719 92.742188 175.65625 100.871094 174.875 108.507812 Z M 175.070312 108.410156 " fill-opacity="1" fill-rule="nonzero"/></g></g></g></g></svg>