<svg xmlns="http://www.w3.org/2000/svg" xmlns:xlink="http://www.w3.org/1999/xlink" width="500" zoomAndPan="magnify" viewBox="0 0 375 374.999991" height="500" preserveAspectRatio="xMidYMid meet" version="1.0"><path fill="rgb(32.939148%, 32.939148%, 32.939148%)" d="M 124.179688 108.929688 C 122.96875 109.71875 64.066406 235.097656 64.066406 236.976562 C 64.066406 240.734375 61.582031 240.554688 110.484375 240.554688 C 134.96875 240.554688 154.964844 240.371094 154.964844 240.1875 C 154.964844 240.007812 153.933594 238.007812 152.601562 235.824219 C 151.328125 233.582031 149.269531 229.765625 147.996094 227.34375 L 145.753906 222.980469 L 117.878906 222.980469 C 95.820312 222.980469 90.0625 222.796875 90.304688 222.191406 C 90.488281 221.828125 98.183594 205.527344 107.394531 186.011719 C 116.667969 166.5 124.664062 149.53125 125.210938 148.199219 L 126.242188 145.894531 L 134.359375 163.046875 C 138.785156 172.5 147.328125 190.617188 153.269531 203.285156 C 159.269531 215.949219 167.75 233.644531 172.175781 242.675781 C 176.660156 251.644531 181.023438 260.734375 181.933594 262.855469 C 183.144531 265.582031 183.992188 266.730469 185.023438 266.972656 C 188.054688 267.761719 189.203125 266.851562 191.324219 262.246094 C 192.417969 259.824219 196.476562 251.277344 200.414062 243.28125 C 204.292969 235.28125 207.746094 228.070312 207.988281 227.34375 C 208.234375 226.554688 210.597656 221.34375 213.261719 215.828125 C 218.535156 204.859375 241.988281 155.167969 244.652344 149.472656 L 246.230469 145.957031 L 264.226562 184.074219 C 274.105469 205.042969 282.226562 222.371094 282.226562 222.617188 C 282.226562 222.796875 269.316406 222.980469 253.5625 222.980469 L 224.898438 222.980469 L 222.292969 228.554688 C 220.835938 231.644531 219.019531 235.644531 218.230469 237.339844 L 216.777344 240.554688 L 261.863281 240.554688 C 310.769531 240.554688 308.890625 240.675781 308.890625 237.402344 C 308.890625 236.734375 295.4375 207.648438 279.074219 172.800781 C 256.773438 125.59375 248.835938 109.355469 247.863281 108.867188 C 244.652344 107.414062 243.988281 108.203125 237.382812 122.199219 C 233.988281 129.472656 230.957031 135.53125 230.65625 135.714844 C 230.109375 136.078125 225.625 145.652344 224.414062 149.046875 C 223.140625 152.5625 186.902344 229.039062 186.476562 229.039062 C 186.054688 229.039062 149.8125 152.5 148.480469 148.863281 C 147.390625 145.835938 142.90625 136.867188 141.875 135.714844 C 141.453125 135.167969 138.480469 129.171875 135.269531 122.382812 C 132.058594 115.535156 129.027344 109.597656 128.484375 109.171875 C 127.332031 108.324219 125.332031 108.203125 124.179688 108.929688 Z M 124.179688 108.929688 " fill-opacity="1" fillRule="nonzero"/></svg>